<svg width="49" height="52" viewBox="0 0 49 52" fill="none" xmlns="http://www.w3.org/2000/svg">
<g id="Group 2287">
<g id="Group">
<path id="Vector" fill-rule="evenodd" clip-rule="evenodd" d="M48.4617 0.0322266C48.8054 17.2828 48.92 34.5918 48.8058 51.9594C47.0182 52.0705 45.2977 51.9549 43.6443 51.6132C45.2502 51.6132 46.8558 51.6132 48.4617 51.6132C48.4617 34.4194 48.4617 17.226 48.4617 0.0322266Z" fill="#008B11"/>
</g>
<g id="Group_2">
<path id="Vector_2" fill-rule="evenodd" clip-rule="evenodd" d="M48.4624 0.0321335C48.4624 17.2259 48.4624 34.4194 48.4624 51.6131C46.8565 51.6131 45.2509 51.6131 43.645 51.6131C36.8521 51.1098 31.1744 48.3403 26.612 43.3048C24.6059 39.4978 22.4267 35.8051 20.0741 32.227C17.4027 28.7205 13.9043 27.3936 9.57908 28.2459C7.91309 29.3803 7.51163 30.8229 8.37473 32.5732C8.54038 30.5279 9.45799 30.0665 11.1275 31.1884C11.3585 33.8398 10.1541 34.9362 7.51448 34.4772C5.85599 33.4594 5.3972 32.0169 6.13808 30.1499C6.41615 30.0433 6.64553 29.8702 6.82628 29.6306C5.02846 30.0537 3.30797 29.8228 1.66478 28.9383C-0.664255 26.7566 -0.549533 24.6795 2.00888 22.707C3.45958 22.2902 4.95066 22.0596 6.48218 22.0146C5.07905 19.4481 5.76725 17.775 8.54678 16.995C10.6917 17.2425 11.5519 18.3964 11.1275 20.4568C9.62041 21.9783 8.7028 21.6321 8.37473 19.4183C7.49284 21.3192 8.00899 22.7617 9.92318 23.7455C15.4213 24.2395 19.3785 21.9894 21.7946 16.995C26.7679 5.17223 35.657 -0.481946 48.4624 0.0321335Z" fill="#008B11"/>
</g>
<g id="Group_3">
<path id="Vector_3" fill-rule="evenodd" clip-rule="evenodd" d="M46.0529 13.1877C46.5116 13.8801 46.5116 14.5725 46.0529 15.2648C45.6569 17.9076 44.8541 20.5039 43.6442 23.0539C43.9157 23.6168 44.2598 24.1361 44.6765 24.6117C44.562 24.727 44.447 24.8426 44.3324 24.9579C43.9502 24.5733 43.4911 24.3424 42.956 24.2655C41.4668 24.899 39.9755 25.5339 38.4827 26.1695C40.0412 26.6936 41.4747 27.4438 42.784 28.4197C43.2964 27.7855 43.9271 27.4971 44.6765 27.5543C44.157 28.0219 43.8129 28.599 43.6442 29.2852C44.4639 30.7595 45.0375 32.3174 45.3647 33.9586C45.4208 34.7746 45.3637 35.5822 45.1927 36.3819C45.1246 35.7304 44.9525 35.1536 44.6765 34.651C44.7705 32.9734 44.3118 31.4734 43.3001 30.1506C43.1856 30.2659 43.0706 30.3815 42.956 30.4968C42.4774 33.0378 41.9613 35.5763 41.4076 38.1128C40.8987 39.2649 40.1534 40.1878 39.1709 40.8822C38.9414 41.5746 38.7123 42.267 38.4827 42.9593C38.3011 42.5366 38.0715 42.133 37.7945 41.7477C33.9709 41.1394 33.7414 41.8318 37.1063 43.8248C41.0456 44.7878 43.5689 43.3457 44.6765 39.4975C44.9061 39.4975 45.0206 39.6128 45.0206 39.8437C44.3971 41.5012 43.8239 43.1746 43.3001 44.8633C43.3198 45.8077 43.6639 46.6153 44.3324 47.2866C43.5059 47.5684 42.7031 47.5106 41.9237 47.1135C41.005 45.6412 39.7432 45.295 38.1386 46.0749C35.6195 45.6748 34.186 44.1748 33.8374 41.5746C31.2856 41.0415 29.3355 39.6567 27.9877 37.4204C27.7582 37.0742 27.7582 36.7281 27.9877 36.3819C29.041 38.019 30.4174 39.2884 32.1169 40.1899C33.6509 40.5634 35.1993 40.6212 36.7622 40.363C35.424 39.0277 33.9902 37.8161 32.461 36.7281C31.746 35.5614 31.4593 34.292 31.6007 32.9201C30.9033 32.9761 30.2151 32.9183 29.5361 32.747C28.1842 31.1947 27.496 31.5983 27.4715 33.9586C27.2403 32.3527 27.1832 30.737 27.2995 29.1121C26.7427 27.8032 25.8825 26.7646 24.7188 25.9964C25.8928 25.2193 26.7531 24.1807 27.2995 22.8808C27.4113 20.613 27.1247 18.4206 26.4392 16.3034C27.0982 16.4017 27.6715 16.2864 28.1597 15.9572C28.5025 15.9274 28.7891 16.043 29.02 16.3034C29.19 16.869 29.2471 17.4461 29.192 18.0343C28.7334 18.0343 28.2743 18.0343 27.8156 18.0343C27.7079 18.9852 27.8225 19.9085 28.1597 20.8037C28.6556 20.3312 29.1143 19.8119 29.5361 19.2459C30.2151 19.0745 30.9033 19.0167 31.6007 19.0728C31.5013 17.9827 31.6734 16.9441 32.1169 15.9572C33.6172 14.7345 35.051 13.465 36.4181 12.1492C36.605 12.1284 36.7196 12.0131 36.7622 11.803C35.7957 11.353 34.878 11.353 34.0094 11.803C31.3069 11.9481 29.3572 13.2175 28.1597 15.611C27.9302 15.611 27.8156 15.4957 27.8156 15.2648C29.0929 12.7675 31.1001 11.2671 33.8374 10.7645C34.5263 6.86889 36.7629 5.48416 40.5473 6.61029C41.2039 5.58559 42.1216 4.89323 43.3001 4.5332C43.6442 4.64848 43.9883 4.76411 44.3324 4.87938C43.806 5.47689 43.4619 6.16926 43.3001 6.95647C43.8861 9.05052 44.4598 11.1276 45.0206 13.1877C45.3647 13.1877 45.7088 13.1877 46.0529 13.1877Z" fill="#008B11"/>
</g>
<g id="Group_4">
<path id="Vector_4" fill-rule="evenodd" clip-rule="evenodd" d="M31.9466 27.0348C32.6706 26.9313 33.3588 27.0465 34.0112 27.381C34.2273 27.9895 34.5714 28.5088 35.0435 28.9388C33.3664 30.1341 31.531 30.7112 29.5379 30.6697C28.9492 30.2774 28.7771 29.7582 29.0218 29.1119C29.9633 28.3323 30.9381 27.6399 31.9466 27.0348Z" fill="white"/>
</g>
<g id="Group_5">
<path id="Vector_5" fill-rule="evenodd" clip-rule="evenodd" d="M46.0548 3.49418C46.0548 6.72509 46.0548 9.95634 46.0548 13.1873C45.7107 13.1873 45.3666 13.1873 45.0225 13.1873C44.4616 11.1271 43.888 9.05004 43.302 6.95599C43.4637 6.16877 43.8078 5.47641 44.3343 4.8789C43.9902 4.76362 43.6461 4.648 43.302 4.53272C42.1234 4.89275 41.2057 5.58511 40.5492 6.60981C36.7648 5.48368 34.5281 6.86841 33.8392 10.764C31.1019 11.2666 29.0948 12.767 27.8175 15.2643C27.3908 15.6656 26.9318 16.0117 26.4411 16.3029C27.1265 18.4201 27.4132 20.6125 27.3013 22.8803C26.7549 24.1802 25.8947 25.2188 24.7206 25.996C25.8843 26.7641 26.7446 27.8027 27.3013 29.1116C27.185 30.7366 27.2422 32.3522 27.4734 33.9581C27.4978 31.5979 28.186 31.1942 29.538 32.7465C30.2169 32.9179 30.9051 32.9757 31.6026 32.9196C31.4612 34.2915 31.7478 35.5609 32.4628 36.7276C33.992 37.8156 35.4259 39.0273 36.7641 40.3625C35.2012 40.6207 33.6527 40.5629 32.1187 40.1894C30.4192 39.2879 29.0428 38.0185 27.9895 36.3814C27.76 36.7276 27.76 37.0738 27.9895 37.4199C29.3374 39.6563 31.2874 41.041 33.8392 41.5741C34.1878 44.1743 35.6213 45.6743 38.1405 46.0745C39.745 45.2945 41.0068 45.6407 41.9256 47.113C42.705 47.5101 43.5078 47.5679 44.3343 47.2861C43.6657 46.6149 43.3216 45.8072 43.302 44.8628C43.8257 43.1742 44.399 41.5007 45.0225 39.8432C45.2465 39.6386 45.476 39.4081 45.7107 39.1508C46.0541 42.2578 46.169 45.3735 46.0548 48.4977C38.2754 48.5372 32.139 45.4216 27.6454 39.1508C27.0464 38.1784 26.6448 37.1399 26.4411 36.0352C27.2439 36.0352 28.047 36.0352 28.8498 36.0352C28.8498 35.4581 28.8498 34.8814 28.8498 34.3043C27.856 34.1278 27.0532 34.3583 26.4411 34.9967C26.2288 35.0351 26.0567 35.1504 25.9249 35.3429C25.2553 34.332 24.5097 33.4087 23.6883 32.5734C22.0972 29.8188 19.9179 27.6261 17.1504 25.996C17.2752 25.7595 17.3899 25.5286 17.4945 25.3036C18.0199 25.3289 18.364 25.098 18.5268 24.6112C21.184 23.2071 23.1339 21.13 24.3765 18.38C26.0127 16.1284 27.3891 13.7051 28.5057 11.1102C33.2347 6.02199 39.0844 3.4831 46.0548 3.49418Z" fill="white"/>
</g>
<g id="Group_6">
<path id="Vector_6" fill-rule="evenodd" clip-rule="evenodd" d="M23.3441 29.4568C23.5698 29.0684 23.6844 28.607 23.6882 28.0721C23.659 27.4376 23.4294 26.9761 23 26.6874C23.1146 26.4565 23.2295 26.2259 23.3441 25.995C23.681 24.9132 23.7959 23.7594 23.6882 22.5332C23.9311 23.4236 24.0461 24.5777 24.0323 25.995C23.9177 27.2645 23.8028 28.5336 23.6882 29.803C23.4793 29.7601 23.3647 29.6448 23.3441 29.4568Z" fill="#008B11"/>
</g>
<g id="Group_7">
<path id="Vector_7" fill-rule="evenodd" clip-rule="evenodd" d="M37.1074 26.6875C38.9446 26.746 40.6076 27.3227 42.0969 28.4184C41.845 29.3874 41.386 30.3106 40.7205 31.1879C38.68 30.3487 37.4756 28.8484 37.1074 26.6875Z" fill="white"/>
</g>
<g id="Group_8">
<path id="Vector_8" fill-rule="evenodd" clip-rule="evenodd" d="M22.9985 26.6875C23.4279 26.9762 23.6575 27.4377 23.6867 28.0722C23.6829 28.6071 23.5683 29.0685 23.3426 29.4569C22.5618 28.6611 22.4473 27.7378 22.9985 26.6875Z" fill="#008B11"/>
</g>
<g id="Group_9">
<path id="Vector_9" fill-rule="evenodd" clip-rule="evenodd" d="M17.4938 25.3037C17.3893 25.5287 17.2745 25.7596 17.1497 25.9961C19.9172 27.6262 22.0965 29.819 23.6876 32.5735C21.5466 29.901 19.0232 27.6508 16.1174 25.823C16.5458 25.5492 17.0046 25.3761 17.4938 25.3037Z" fill="#008B11"/>
</g>
<g id="Group_10">
<path id="Vector_10" fill-rule="evenodd" clip-rule="evenodd" d="M46.053 3.49414C46.2825 6.60977 46.5117 9.7254 46.7412 12.841C46.7412 21.6108 46.7412 30.381 46.7412 39.1508C46.5117 42.2664 46.2825 45.3821 46.053 48.4977C46.1672 45.3734 46.0523 42.2578 45.7089 39.1508C45.4742 39.408 45.2447 39.6386 45.0207 39.8432C45.0207 39.6123 44.9061 39.497 44.6766 39.497C44.3325 39.2661 43.9884 39.0355 43.6443 38.8046C44.4471 38.8046 45.2502 38.8046 46.053 38.8046C46.053 38.2275 46.053 37.6508 46.053 37.0737C45.3648 37.0737 44.6766 37.0737 43.9884 37.0737C44.5555 36.3966 44.785 35.589 44.6766 34.6505C44.9526 35.1531 45.1246 35.7298 45.1927 36.3814C45.3638 35.5817 45.4209 34.774 45.3648 33.9581C45.6459 34.8128 45.818 35.7357 45.8809 36.7275C46.053 29.5741 46.1105 22.4195 46.053 15.2643C46.5117 14.5719 46.5117 13.8796 46.053 13.1872C46.053 9.95631 46.053 6.72505 46.053 3.49414Z" fill="#008B11"/>
</g>
<g id="Group_11">
<path id="Vector_11" fill-rule="evenodd" clip-rule="evenodd" d="M21.6242 24.957C22.9121 25.6241 22.9696 26.4321 21.7962 27.3803C20.7222 26.6277 20.6649 25.8201 21.6242 24.957Z" fill="#008B11"/>
</g>
<g id="Group_12">
<path id="Vector_12" fill-rule="evenodd" clip-rule="evenodd" d="M18.5264 24.6112C18.3636 25.098 18.0195 25.3289 17.4941 25.3036C17.6569 24.8169 18.001 24.586 18.5264 24.6112Z" fill="#008B11"/>
</g>
<g id="Group_13">
<path id="Vector_13" fill-rule="evenodd" clip-rule="evenodd" d="M28.1604 23.5723C29.3796 24.6129 30.756 25.4783 32.2896 26.1686C30.7914 26.6969 29.5296 27.5624 28.5045 28.765C27.7606 27.7285 26.8432 26.8631 25.7517 26.1686C26.6254 25.3482 27.4282 24.4827 28.1604 23.5723Z" fill="white"/>
</g>
<g id="Group_14">
<path id="Vector_14" fill-rule="evenodd" clip-rule="evenodd" d="M2.35366 24.2654C3.50636 24.2083 4.65335 24.2661 5.79466 24.4385C7.35811 25.0395 8.96393 25.5013 10.6121 25.8233C7.78979 27.1747 4.80758 27.6362 1.66546 27.208C1.04502 26.9875 0.586227 26.5838 0.289062 25.9963C0.860922 25.2514 1.54912 24.6746 2.35366 24.2654Z" fill="white"/>
</g>
<g id="Group_15">
<path id="Vector_15" fill-rule="evenodd" clip-rule="evenodd" d="M23.6867 22.5332C23.7944 23.7594 23.6794 24.9132 23.3426 25.995C22.3349 24.6993 22.4496 23.5454 23.6867 22.5332Z" fill="#008B11"/>
</g>
<g id="Group_16">
<path id="Vector_16" fill-rule="evenodd" clip-rule="evenodd" d="M40.2052 21.1495C40.6095 21.0737 40.9536 21.189 41.2375 21.4957C41.7409 22.2673 42.0279 23.0753 42.0977 23.919C40.5637 24.8758 38.9007 25.4525 37.1083 25.6499C37.0643 24.9038 37.2363 24.2115 37.6244 23.5728C38.4775 22.7191 39.3377 21.9115 40.2052 21.1495Z" fill="white"/>
</g>
<g id="Group_17">
<path id="Vector_17" fill-rule="evenodd" clip-rule="evenodd" d="M29.5359 21.1494C31.5086 21.4485 33.3437 22.1409 35.0415 23.2265C34.4585 24.0438 33.7703 24.7362 32.9769 25.3036C31.2577 24.9003 29.8813 23.977 28.8477 22.5341C29.0816 22.0633 29.3112 21.6019 29.5359 21.1494Z" fill="white"/>
</g>
<g id="Group_18">
<path id="Vector_18" fill-rule="evenodd" clip-rule="evenodd" d="M24.3751 18.3799C23.1325 21.1299 21.1826 23.207 18.5254 24.6111C20.7175 22.7525 22.6673 20.6754 24.3751 18.3799Z" fill="#008B11"/>
</g>
<g id="Group_19">
<path id="Vector_19" fill-rule="evenodd" clip-rule="evenodd" d="M38.4829 12.4941C39.7905 12.5959 40.6507 13.2883 41.0636 14.5712C42.0006 19.7428 39.8785 22.2236 34.6978 22.0141C32.9047 21.1161 32.2739 19.6736 32.8052 17.6869C34.3564 15.8604 35.9049 15.8604 37.4506 17.6869C37.336 17.8021 37.2211 17.9178 37.1065 18.033C36.7627 17.1074 36.1891 16.8764 35.386 17.3407C34.6923 18.8196 35.1513 19.6272 36.7624 19.7639C38.6831 19.5947 39.4288 18.5561 38.999 16.6483C38.4898 15.5533 37.6295 14.9188 36.4183 14.7443C37.4113 14.2649 38.0995 13.515 38.4829 12.4941Z" fill="white"/>
</g>
<g id="Group_20">
<path id="Vector_20" fill-rule="evenodd" clip-rule="evenodd" d="M41.237 2.45508C40.6255 2.83588 39.9373 3.12459 39.1724 3.32053C39.4986 3.48774 39.8427 3.5452 40.2047 3.49362C36.8552 4.48612 33.7583 6.04394 30.914 8.16707C29.8999 9.01037 29.0971 9.9911 28.5053 11.1096C28.1756 11.2664 27.8887 11.497 27.645 11.802C26.5463 14.0127 25.4566 16.2054 24.3761 18.3794C22.6683 20.6749 20.7185 22.752 18.5264 24.6107C18.001 24.5854 17.6569 24.8163 17.4941 25.303C17.0049 25.3754 16.5461 25.5485 16.1177 25.8223C19.0234 27.6501 21.5469 29.9003 23.6879 32.5728C24.2419 33.8191 24.9301 34.9733 25.7525 36.0347C25.7525 36.1499 25.7525 36.2656 25.7525 36.3808C28.0463 41.9769 32.0609 45.727 37.796 47.6317C39.8788 48.2711 41.9434 48.7904 43.9898 49.1895C44.0772 49.4776 44.4213 49.7085 45.0221 49.8819C37.2561 49.4675 31.1198 46.121 26.6127 39.8427C24.6902 35.2229 21.8799 31.2418 18.1823 27.8994C16.767 27.0717 15.2759 26.4371 13.709 25.9954C16.9136 24.907 19.6091 23.0608 21.7953 20.4565C23.8321 17.1671 25.7821 13.8206 27.645 10.4172C31.2918 6.22776 35.8226 3.57359 41.237 2.45508Z" fill="white"/>
</g>
<g id="Group_21">
<path id="Vector_21" fill-rule="evenodd" clip-rule="evenodd" d="M46.0526 15.2637C46.1101 22.4189 46.0526 29.5734 45.8806 36.7269C45.8176 35.7351 45.6455 34.8122 45.3644 33.9575C45.0372 32.3162 44.4636 30.7584 43.6439 29.284C43.8125 28.5979 44.1566 28.0208 44.6762 27.5531C43.9268 27.496 43.296 27.7844 42.7837 28.4186C41.4744 27.4427 40.0409 26.6925 38.4824 26.1684C39.9751 25.5328 41.4665 24.8979 42.9557 24.2644C43.4908 24.3412 43.9498 24.5721 44.3321 24.9567C44.4467 24.8415 44.5616 24.7258 44.6762 24.6106C44.2595 24.1349 43.9154 23.6156 43.6439 23.0527C44.8538 20.5028 45.6566 17.9064 46.0526 15.2637Z" fill="white"/>
</g>
<g id="Group_22">
<path id="Vector_22" fill-rule="evenodd" clip-rule="evenodd" d="M27.8159 15.2637C27.8159 15.4946 27.9304 15.6099 28.16 15.6099C28.16 15.7251 28.16 15.8408 28.16 15.956C27.6717 16.2853 27.0984 16.4005 26.4395 16.3022C26.9301 16.0111 27.3892 15.6649 27.8159 15.2637Z" fill="#008B11"/>
</g>
<g id="Group_23">
<path id="Vector_23" fill-rule="evenodd" clip-rule="evenodd" d="M34.0103 11.8029C34.8908 11.6983 35.694 11.8139 36.419 12.149C35.0519 13.4649 33.618 14.7343 32.1177 15.957C31.6742 16.944 31.5021 17.9825 31.6016 19.0727C30.9041 19.0166 30.2159 19.0744 29.537 19.2458C29.1151 19.8118 28.6564 20.331 28.1606 20.8036C27.8234 19.9084 27.7088 18.9851 27.8165 18.0341C28.2752 18.0341 28.7342 18.0341 29.1929 18.0341C29.2479 17.446 29.1908 16.8689 29.0208 16.3032C28.7899 16.0429 28.5033 15.9273 28.1606 15.957C28.1606 15.8418 28.1606 15.7261 28.1606 15.6109C29.358 13.2174 31.3077 11.9479 34.0103 11.8029Z" fill="white"/>
</g>
<g id="Group_24">
<path id="Vector_24" fill-rule="evenodd" clip-rule="evenodd" d="M28.5042 11.1094C27.3876 13.7043 26.0112 16.1276 24.375 18.3792C25.4555 16.2052 26.5452 14.0125 27.6439 11.8017C27.8876 11.4968 28.1746 11.2662 28.5042 11.1094Z" fill="#008B11"/>
</g>
<g id="Group_25">
<path id="Vector_25" fill-rule="evenodd" clip-rule="evenodd" d="M37.7942 7.9946C41.4365 7.57469 43.7302 9.1325 44.6762 12.668C43.8021 13.2957 43.458 14.1611 43.6439 15.2644C44.1025 15.2644 44.5616 15.2644 45.0203 15.2644C44.8971 16.6522 44.725 18.037 44.5041 19.4186C43.8531 22.7658 43.1649 22.8811 42.4395 19.7648C42.7279 16.4577 41.6956 13.6882 39.3426 11.4564C39.2841 10.6896 39.0546 9.99726 38.6544 9.37933C38.3255 9.75286 38.0388 10.1565 37.7942 10.591C36.7433 10.8752 35.711 10.8177 34.6973 10.4179C35.6453 9.45964 36.6776 8.652 37.7942 7.9946Z" fill="white"/>
</g>
<g id="Group_26">
<path id="Vector_26" fill-rule="evenodd" clip-rule="evenodd" d="M34.01 11.8024C34.8785 11.3523 35.7962 11.3523 36.7628 11.8024C36.7201 12.0125 36.6056 12.1278 36.4187 12.1486C35.6937 11.8134 34.8906 11.6978 34.01 11.8024Z" fill="#008B11"/>
</g>
<g id="Group_27">
<path id="Vector_27" fill-rule="evenodd" clip-rule="evenodd" d="M46.7412 12.841C46.5117 9.72538 46.2825 6.60975 46.053 3.49412C39.0826 3.48304 33.2329 6.02194 28.5039 11.1101C29.0958 9.9916 29.8985 9.01086 30.9126 8.16757C33.7569 6.04444 36.8538 4.48662 40.2033 3.49412C42.3618 3.0832 44.541 2.8523 46.7412 2.80176C46.7412 6.14829 46.7412 9.49448 46.7412 12.841Z" fill="#008B11"/>
</g>
<g id="Group_28">
<path id="Vector_28" fill-rule="evenodd" clip-rule="evenodd" d="M23.6873 32.5732C24.5086 33.4086 25.2543 34.3318 25.9239 35.3427C26.0557 35.1502 26.2277 35.0349 26.4401 34.9965C26.343 35.4389 26.1135 35.7851 25.7519 36.0351C24.9295 34.9737 24.2413 33.8195 23.6873 32.5732Z" fill="#008B11"/>
</g>
<g id="Group_29">
<path id="Vector_29" fill-rule="evenodd" clip-rule="evenodd" d="M26.4399 36.0354C26.2104 36.1507 25.9812 36.2663 25.7517 36.3816C25.7517 36.2663 25.7517 36.1507 25.7517 36.0354C26.1134 35.7855 26.3429 35.4393 26.4399 34.9969C27.0521 34.3585 27.8548 34.1279 28.8486 34.3045C28.8486 34.8816 28.8486 35.4583 28.8486 36.0354C28.0458 36.0354 27.2427 36.0354 26.4399 36.0354Z" fill="#008B11"/>
</g>
<g id="Group_30">
<path id="Vector_30" fill-rule="evenodd" clip-rule="evenodd" d="M35.3852 34.9959C35.7293 35.2268 36.0734 35.4573 36.4175 35.6883C33.3798 36.1518 32.1754 34.8827 32.8044 31.8803C33.0911 31.1301 33.6072 30.6108 34.3529 30.3224C40.7401 29.9448 42.7472 32.772 40.3746 38.8039C40.0092 39.2882 39.5505 39.6344 38.9982 39.8424C38.2601 39.0999 37.5145 38.3497 36.7616 37.5922C38.6634 36.9331 39.4091 35.6059 38.9982 33.6112C37.9807 32.5512 36.7764 32.3206 35.3852 32.9188C34.9537 33.6607 34.9537 34.353 35.3852 34.9959Z" fill="white"/>
</g>
<g id="Group_31">
<path id="Vector_31" fill-rule="evenodd" clip-rule="evenodd" d="M36.419 35.6894C36.0749 35.4585 35.7308 35.228 35.3867 34.997C36.0722 35.0566 36.6454 34.8257 37.1072 34.3047C37.4152 34.9434 37.1857 35.4049 36.419 35.6894Z" fill="#008B11"/>
</g>
<g id="Group_32">
<path id="Vector_32" fill-rule="evenodd" clip-rule="evenodd" d="M43.9889 37.0732C44.6771 37.0732 45.3653 37.0732 46.0535 37.0732C46.0535 37.6503 46.0535 38.2271 46.0535 38.8041C45.2507 38.8041 44.4476 38.8041 43.6448 38.8041C43.5471 38.1412 43.6617 37.5645 43.9889 37.0732Z" fill="#008B11"/>
</g>
<g id="Group_33">
<path id="Vector_33" fill-rule="evenodd" clip-rule="evenodd" d="M44.6769 34.6507C44.7853 35.5892 44.5558 36.3969 43.9887 37.074C43.6615 37.5652 43.5469 38.142 43.6446 38.8049C43.9887 39.0358 44.3328 39.2664 44.6769 39.4973C43.5693 43.3454 41.046 44.7876 37.1067 43.8245C33.7418 41.8316 33.9713 41.1392 37.7949 41.7475C38.0719 42.1328 38.3015 42.5364 38.4831 42.9591C38.5038 43.1471 38.6184 43.2624 38.8272 43.3053C39.1624 42.5288 39.2773 41.7212 39.1713 40.882C40.1538 40.1876 40.8991 39.2647 41.408 38.1126C41.9617 35.5761 42.4778 33.0375 42.9564 30.4966C43.071 30.3813 43.186 30.2657 43.3005 30.1504C44.3122 31.4731 44.7709 32.9732 44.6769 34.6507Z" fill="white"/>
</g>
<g id="Group_34">
<path id="Vector_34" fill-rule="evenodd" clip-rule="evenodd" d="M26.4399 36.0352C26.6436 37.1398 27.0452 38.1784 27.6443 39.1508C32.1379 45.4215 38.2742 48.5371 46.0536 48.4977C46.2831 45.382 46.5123 42.2664 46.7418 39.1508C46.7418 42.4973 46.7418 45.8435 46.7418 49.19C45.8241 49.19 44.9067 49.19 43.989 49.19C41.9426 48.7909 39.878 48.2716 37.7952 47.6322C32.0601 45.7275 28.0455 41.9774 25.7517 36.3813C25.9812 36.2661 26.2104 36.1504 26.4399 36.0352Z" fill="#008B11"/>
</g>
<g id="Group_35">
<path id="Vector_35" fill-rule="evenodd" clip-rule="evenodd" d="M39.1706 40.8809C39.2766 41.72 39.1617 42.5276 38.8265 43.3041C38.6177 43.2612 38.5031 43.1459 38.4824 42.9579C38.7119 42.2656 38.9411 41.5732 39.1706 40.8809Z" fill="#008B11"/>
</g>
<g id="Group_36">
<path id="Vector_36" fill-rule="evenodd" clip-rule="evenodd" d="M45.0216 49.8823C44.4208 49.7088 44.0767 49.4779 43.9893 49.1899C44.907 49.1899 45.8244 49.1899 46.7421 49.1899C46.7421 45.8434 46.7421 42.4972 46.7421 39.1506C46.7421 30.3808 46.7421 21.6107 46.7421 12.8409C46.7421 9.49434 46.7421 6.14815 46.7421 2.80162C44.5419 2.85216 42.3627 3.08306 40.2042 3.49398C39.8422 3.54556 39.4981 3.48809 39.1719 3.32089C39.9368 3.12495 40.625 2.83624 41.2365 2.45544C43.1707 2.1598 45.1207 2.04452 47.0862 2.10925C47.0862 18.0336 47.0862 33.9579 47.0862 49.8823C46.398 49.8823 45.7098 49.8823 45.0216 49.8823Z" fill="white"/>
</g>
</g>
</svg>
