<svg width="49" height="52" viewBox="0 0 49 52" fill="none" xmlns="http://www.w3.org/2000/svg">
<g id="Group 2288">
<g id="Group">
<path id="Vector" fill-rule="evenodd" clip-rule="evenodd" d="M0.538314 0.0322266C0.194558 17.2828 0.0799732 34.5918 0.194214 51.9594C1.98181 52.0705 3.70231 51.9549 5.35571 51.6132C3.7498 51.6132 2.14423 51.6132 0.538314 51.6132C0.538314 34.4194 0.538314 17.226 0.538314 0.0322266Z" fill="#008B11"/>
</g>
<g id="Group_2">
<path id="Vector_2" fill-rule="evenodd" clip-rule="evenodd" d="M0.537628 0.0321335C0.537628 17.2259 0.537628 34.4194 0.537628 51.6131C2.14354 51.6131 3.74911 51.6131 5.35503 51.6131C12.1479 51.1098 17.8256 48.3403 22.388 43.3048C24.3941 39.4978 26.5733 35.8051 28.9259 32.227C31.5973 28.7205 35.0957 27.3936 39.4209 28.2459C41.0869 29.3803 41.4884 30.8229 40.6253 32.5732C40.4596 30.5279 39.542 30.0665 37.8725 31.1884C37.6415 33.8398 38.8459 34.9362 41.4855 34.4772C43.144 33.4594 43.6028 32.0169 42.8619 30.1499C42.5838 30.0433 42.3545 29.8702 42.1737 29.6306C43.9715 30.0537 45.692 29.8228 47.3352 28.9383C49.6643 26.7566 49.5495 24.6795 46.9911 22.707C45.5404 22.2902 44.0493 22.0596 42.5178 22.0146C43.921 19.4481 43.2328 17.775 40.4532 16.995C38.3083 17.2425 37.4481 18.3964 37.8725 20.4568C39.3796 21.9783 40.2972 21.6321 40.6253 19.4183C41.5072 21.3192 40.991 22.7617 39.0768 23.7455C33.5787 24.2395 29.6215 21.9894 27.2054 16.995C22.2321 5.17223 13.343 -0.481946 0.537628 0.0321335Z" fill="#008B11"/>
</g>
<g id="Group_3">
<path id="Vector_3" fill-rule="evenodd" clip-rule="evenodd" d="M2.94705 13.1877C2.48837 13.8801 2.48837 14.5725 2.94705 15.2648C3.34311 17.9076 4.1459 20.5039 5.35575 23.0539C5.08426 23.6168 4.74016 24.1361 4.32345 24.6117C4.43804 24.727 4.55297 24.8426 4.66755 24.9579C5.04985 24.5733 5.50888 24.3424 6.04395 24.2655C7.53322 24.899 9.02455 25.5339 10.5173 26.1695C8.95882 26.6936 7.5253 27.4438 6.216 28.4197C5.70364 27.7855 5.0729 27.4971 4.32345 27.5543C4.84304 28.0219 5.18715 28.599 5.35575 29.2852C4.53611 30.7595 3.96249 32.3174 3.63525 33.9586C3.57916 34.7746 3.63629 35.5822 3.8073 36.3819C3.87543 35.7304 4.04749 35.1536 4.32345 34.651C4.22952 32.9734 4.6882 31.4734 5.69985 30.1506C5.81444 30.2659 5.92937 30.3815 6.04395 30.4968C6.5226 33.0378 7.03875 35.5763 7.5924 38.1128C8.10133 39.2649 8.84665 40.1878 9.82905 40.8822C10.0586 41.5746 10.2877 42.267 10.5173 42.9593C10.6989 42.5366 10.9285 42.133 11.2055 41.7477C15.0291 41.1394 15.2586 41.8318 11.8937 43.8248C7.9544 44.7878 5.43111 43.3457 4.32345 39.4975C4.09394 39.4975 3.97935 39.6128 3.97935 39.8437C4.60286 41.5012 5.17613 43.1746 5.69985 44.8633C5.68024 45.8077 5.33614 46.6153 4.66755 47.2866C5.49408 47.5684 6.29687 47.5106 7.07625 47.1135C7.995 45.6412 9.25681 45.295 10.8614 46.0749C13.3805 45.6748 14.814 44.1748 15.1626 41.5746C17.7144 41.0415 19.6645 39.6567 21.0123 37.4204C21.2418 37.0742 21.2418 36.7281 21.0123 36.3819C19.959 38.019 18.5826 39.2884 16.8831 40.1899C15.3491 40.5634 13.8007 40.6212 12.2378 40.363C13.576 39.0277 15.0098 37.8161 16.539 36.7281C17.254 35.5614 17.5407 34.292 17.3993 32.9201C18.0967 32.9761 18.7849 32.9183 19.4639 32.747C20.8158 31.1947 21.504 31.5983 21.5285 33.9586C21.7597 32.3527 21.8168 30.737 21.7005 29.1121C22.2573 27.8032 23.1175 26.7646 24.2812 25.9964C23.1072 25.2193 22.2469 24.1807 21.7005 22.8808C21.5887 20.613 21.8753 18.4206 22.5608 16.3034C21.9018 16.4017 21.3285 16.2864 20.8403 15.9572C20.4975 15.9274 20.2109 16.043 19.98 16.3034C19.81 16.869 19.7529 17.4461 19.808 18.0343C20.2666 18.0343 20.7257 18.0343 21.1844 18.0343C21.2921 18.9852 21.1775 19.9085 20.8403 20.8037C20.3444 20.3312 19.8857 19.8119 19.4639 19.2459C18.7849 19.0745 18.0967 19.0167 17.3993 19.0728C17.4987 17.9827 17.3266 16.9441 16.8831 15.9572C15.3828 14.7345 13.949 13.465 12.5819 12.1492C12.395 12.1284 12.2804 12.0131 12.2378 11.803C13.2043 11.353 14.122 11.353 14.9906 11.803C17.6931 11.9481 19.6428 13.2175 20.8403 15.611C21.0698 15.611 21.1844 15.4957 21.1844 15.2648C19.9071 12.7675 17.8999 11.2671 15.1626 10.7645C14.4737 6.86889 12.2371 5.48416 8.45265 6.61029C7.79611 5.58559 6.8784 4.89323 5.69985 4.5332C5.35575 4.64848 5.01165 4.76411 4.66755 4.87938C5.19403 5.47689 5.53813 6.16926 5.69985 6.95647C5.11385 9.05052 4.54024 11.1276 3.97935 13.1877C3.63525 13.1877 3.29115 13.1877 2.94705 13.1877Z" fill="#008B11"/>
</g>
<g id="Group_4">
<path id="Vector_4" fill-rule="evenodd" clip-rule="evenodd" d="M17.0534 27.0348C16.3294 26.9313 15.6412 27.0465 14.9888 27.381C14.7727 27.9895 14.4286 28.5088 13.9565 28.9388C15.6336 30.1341 17.469 30.7112 19.4621 30.6697C20.0508 30.2774 20.2229 29.7582 19.9782 29.1119C19.0367 28.3323 18.0619 27.6399 17.0534 27.0348Z" fill="white"/>
</g>
<g id="Group_5">
<path id="Vector_5" fill-rule="evenodd" clip-rule="evenodd" d="M2.94522 3.49418C2.94522 6.72509 2.94522 9.95634 2.94522 13.1873C3.28932 13.1873 3.63342 13.1873 3.97752 13.1873C4.5384 11.1271 5.11201 9.05004 5.69802 6.95599C5.53629 6.16877 5.19219 5.47641 4.66572 4.8789C5.00982 4.76362 5.35392 4.648 5.69802 4.53272C6.87656 4.89275 7.79427 5.58511 8.45082 6.60981C12.2352 5.48368 14.4719 6.86841 15.1608 10.764C17.8981 11.2666 19.9052 12.767 21.1825 15.2643C21.6092 15.6656 22.0682 16.0117 22.5589 16.3029C21.8735 18.4201 21.5868 20.6125 21.6987 22.8803C22.2451 24.1802 23.1053 25.2188 24.2794 25.996C23.1157 26.7641 22.2554 27.8027 21.6987 29.1116C21.815 30.7366 21.7578 32.3522 21.5266 33.9581C21.5022 31.5979 20.814 31.1942 19.462 32.7465C18.7831 32.9179 18.0949 32.9757 17.3974 32.9196C17.5388 34.2915 17.2522 35.5609 16.5372 36.7276C15.008 37.8156 13.5741 39.0273 12.2359 40.3625C13.7988 40.6207 15.3473 40.5629 16.8813 40.1894C18.5808 39.2879 19.9572 38.0185 21.0105 36.3814C21.24 36.7276 21.24 37.0738 21.0105 37.4199C19.6626 39.6563 17.7126 41.041 15.1608 41.5741C14.8122 44.1743 13.3787 45.6743 10.8595 46.0745C9.25498 45.2945 7.99316 45.6407 7.07442 47.113C6.29503 47.5101 5.49224 47.5679 4.66572 47.2861C5.3343 46.6149 5.6784 45.8072 5.69802 44.8628C5.1743 43.1742 4.60103 41.5007 3.97752 39.8432C3.75351 39.6386 3.52399 39.4081 3.28932 39.1508C2.94591 42.2578 2.83098 45.3735 2.94522 48.4977C10.7246 48.5372 16.861 45.4216 21.3546 39.1508C21.9536 38.1784 22.3552 37.1399 22.5589 36.0352C21.7561 36.0352 20.953 36.0352 20.1502 36.0352C20.1502 35.4581 20.1502 34.8814 20.1502 34.3043C21.144 34.1278 21.9468 34.3583 22.5589 34.9967C22.7712 35.0351 22.9433 35.1504 23.0751 35.3429C23.7447 34.332 24.4903 33.4087 25.3117 32.5734C26.9028 29.8188 29.0821 27.6261 31.8496 25.996C31.7248 25.7595 31.6101 25.5286 31.5055 25.3036C30.9801 25.3289 30.636 25.098 30.4732 24.6112C27.816 23.2071 25.8661 21.13 24.6235 18.38C22.9873 16.1284 21.6109 13.7051 20.4943 11.1102C15.7653 6.02199 9.91565 3.4831 2.94522 3.49418Z" fill="white"/>
</g>
<g id="Group_6">
<path id="Vector_6" fill-rule="evenodd" clip-rule="evenodd" d="M25.6559 29.4568C25.4302 29.0684 25.3156 28.607 25.3118 28.0721C25.341 27.4376 25.5706 26.9761 26 26.6874C25.8854 26.4565 25.7705 26.2259 25.6559 25.995C25.319 24.9132 25.2041 23.7594 25.3118 22.5332C25.0689 23.4236 24.9539 24.5777 24.9677 25.995C25.0823 27.2645 25.1972 28.5336 25.3118 29.803C25.5207 29.7601 25.6353 29.6448 25.6559 29.4568Z" fill="#008B11"/>
</g>
<g id="Group_7">
<path id="Vector_7" fill-rule="evenodd" clip-rule="evenodd" d="M11.8926 26.6875C10.0554 26.746 8.39239 27.3227 6.90313 28.4184C7.15501 29.3874 7.61404 30.3106 8.27953 31.1879C10.32 30.3487 11.5244 28.8484 11.8926 26.6875Z" fill="white"/>
</g>
<g id="Group_8">
<path id="Vector_8" fill-rule="evenodd" clip-rule="evenodd" d="M26.0015 26.6875C25.5721 26.9762 25.3425 27.4377 25.3133 28.0722C25.3171 28.6071 25.4317 29.0685 25.6574 29.4569C26.4382 28.6611 26.5527 27.7378 26.0015 26.6875Z" fill="#008B11"/>
</g>
<g id="Group_9">
<path id="Vector_9" fill-rule="evenodd" clip-rule="evenodd" d="M31.5062 25.3037C31.6107 25.5287 31.7255 25.7596 31.8503 25.9961C29.0828 27.6262 26.9035 29.819 25.3124 32.5735C27.4534 29.901 29.9768 27.6508 32.8826 25.823C32.4542 25.5492 31.9954 25.3761 31.5062 25.3037Z" fill="#008B11"/>
</g>
<g id="Group_10">
<path id="Vector_10" fill-rule="evenodd" clip-rule="evenodd" d="M2.94701 3.49414C2.7175 6.60977 2.48833 9.7254 2.25881 12.841C2.25881 21.6108 2.25881 30.381 2.25881 39.1508C2.48833 42.2664 2.7175 45.3821 2.94701 48.4977C2.83277 45.3734 2.9477 42.2578 3.29111 39.1508C3.52579 39.408 3.7553 39.6386 3.97931 39.8432C3.97931 39.6123 4.0939 39.497 4.32341 39.497C4.66751 39.2661 5.01161 39.0355 5.35571 38.8046C4.55293 38.8046 3.7498 38.8046 2.94701 38.8046C2.94701 38.2275 2.94701 37.6508 2.94701 37.0737C3.63521 37.0737 4.32341 37.0737 5.01161 37.0737C4.44454 36.3966 4.21502 35.589 4.32341 34.6505C4.04745 35.1531 3.8754 35.7298 3.80726 36.3814C3.63625 35.5817 3.57913 34.774 3.63521 33.9581C3.35408 34.8128 3.18203 35.7357 3.11906 36.7275C2.94701 29.5741 2.88955 22.4195 2.94701 15.2643C2.48833 14.5719 2.48833 13.8796 2.94701 13.1872C2.94701 9.95631 2.94701 6.72505 2.94701 3.49414Z" fill="#008B11"/>
</g>
<g id="Group_11">
<path id="Vector_11" fill-rule="evenodd" clip-rule="evenodd" d="M27.3758 24.957C26.0879 25.6241 26.0304 26.4321 27.2038 27.3803C28.2778 26.6277 28.3351 25.8201 27.3758 24.957Z" fill="#008B11"/>
</g>
<g id="Group_12">
<path id="Vector_12" fill-rule="evenodd" clip-rule="evenodd" d="M30.4736 24.6112C30.6364 25.098 30.9805 25.3289 31.5059 25.3036C31.3431 24.8169 30.999 24.586 30.4736 24.6112Z" fill="#008B11"/>
</g>
<g id="Group_13">
<path id="Vector_13" fill-rule="evenodd" clip-rule="evenodd" d="M20.8396 23.5723C19.6204 24.6129 18.244 25.4783 16.7104 26.1686C18.2086 26.6969 19.4704 27.5624 20.4955 28.765C21.2394 27.7285 22.1568 26.8631 23.2483 26.1686C22.3746 25.3482 21.5718 24.4827 20.8396 23.5723Z" fill="white"/>
</g>
<g id="Group_14">
<path id="Vector_14" fill-rule="evenodd" clip-rule="evenodd" d="M46.6463 24.2654C45.4936 24.2083 44.3466 24.2661 43.2053 24.4385C41.6419 25.0395 40.0361 25.5013 38.3879 25.8233C41.2102 27.1747 44.1924 27.6362 47.3345 27.208C47.955 26.9875 48.4138 26.5838 48.7109 25.9963C48.1391 25.2514 47.4509 24.6746 46.6463 24.2654Z" fill="white"/>
</g>
<g id="Group_15">
<path id="Vector_15" fill-rule="evenodd" clip-rule="evenodd" d="M25.3133 22.5332C25.2056 23.7594 25.3206 24.9132 25.6574 25.995C26.6651 24.6993 26.5504 23.5454 25.3133 22.5332Z" fill="#008B11"/>
</g>
<g id="Group_16">
<path id="Vector_16" fill-rule="evenodd" clip-rule="evenodd" d="M8.79481 21.1495C8.39049 21.0737 8.04639 21.189 7.76251 21.4957C7.25909 22.2673 6.97211 23.0753 6.90226 23.919C8.43625 24.8758 10.0993 25.4525 11.8917 25.6499C11.9357 24.9038 11.7637 24.2115 11.3756 23.5728C10.5225 22.7191 9.66228 21.9115 8.79481 21.1495Z" fill="white"/>
</g>
<g id="Group_17">
<path id="Vector_17" fill-rule="evenodd" clip-rule="evenodd" d="M19.4641 21.1494C17.4914 21.4485 15.6563 22.1409 13.9585 23.2265C14.5415 24.0438 15.2297 24.7362 16.0231 25.3036C17.7423 24.9003 19.1187 23.977 20.1523 22.5341C19.9184 22.0633 19.6888 21.6019 19.4641 21.1494Z" fill="white"/>
</g>
<g id="Group_18">
<path id="Vector_18" fill-rule="evenodd" clip-rule="evenodd" d="M24.6249 18.3799C25.8675 21.1299 27.8174 23.207 30.4746 24.6111C28.2825 22.7525 26.3327 20.6754 24.6249 18.3799Z" fill="#008B11"/>
</g>
<g id="Group_19">
<path id="Vector_19" fill-rule="evenodd" clip-rule="evenodd" d="M10.5171 12.4941C9.20955 12.5959 8.3493 13.2883 7.93638 14.5712C6.99939 19.7428 9.12146 22.2236 14.3022 22.0141C16.0953 21.1161 16.7261 19.6736 16.1948 17.6869C14.6436 15.8604 13.0951 15.8604 11.5494 17.6869C11.664 17.8021 11.7789 17.9178 11.8935 18.033C12.2373 17.1074 12.8109 16.8764 13.614 17.3407C14.3077 18.8196 13.8487 19.6272 12.2376 19.7639C10.3169 19.5947 9.57119 18.5561 10.001 16.6483C10.5102 15.5533 11.3705 14.9188 12.5817 14.7443C11.5887 14.2649 10.9005 13.515 10.5171 12.4941Z" fill="white"/>
</g>
<g id="Group_20">
<path id="Vector_20" fill-rule="evenodd" clip-rule="evenodd" d="M7.76302 2.45508C8.37449 2.83588 9.06269 3.12459 9.82762 3.32053C9.50142 3.48774 9.15732 3.5452 8.79532 3.49362C12.1448 4.48612 15.2417 6.04394 18.086 8.16707C19.1001 9.01037 19.9029 9.9911 20.4947 11.1096C20.8244 11.2664 21.1113 11.497 21.355 11.802C22.4537 14.0127 23.5434 16.2054 24.6239 18.3794C26.3317 20.6749 28.2815 22.752 30.4736 24.6107C30.999 24.5854 31.3431 24.8163 31.5059 25.303C31.9951 25.3754 32.4539 25.5485 32.8823 25.8223C29.9766 27.6501 27.4531 29.9003 25.3121 32.5728C24.7581 33.8191 24.0699 34.9733 23.2475 36.0347C23.2475 36.1499 23.2475 36.2656 23.2475 36.3808C20.9537 41.9769 16.9391 45.727 11.204 47.6317C9.12119 48.2711 7.05659 48.7904 5.01022 49.1895C4.92282 49.4776 4.57872 49.7085 3.97792 49.8819C11.7439 49.4675 17.8802 46.121 22.3873 39.8427C24.3098 35.2229 27.1201 31.2418 30.8177 27.8994C32.233 27.0717 33.7241 26.4371 35.291 25.9954C32.0864 24.907 29.3909 23.0608 27.2047 20.4565C25.1679 17.1671 23.2179 13.8206 21.355 10.4172C17.7082 6.22776 13.1774 3.57359 7.76302 2.45508Z" fill="white"/>
</g>
<g id="Group_21">
<path id="Vector_21" fill-rule="evenodd" clip-rule="evenodd" d="M2.94738 15.2637C2.88992 22.4189 2.94738 29.5734 3.11943 36.7269C3.1824 35.7351 3.35445 34.8122 3.63558 33.9575C3.96282 32.3162 4.53643 30.7584 5.35608 29.284C5.18747 28.5979 4.84337 28.0208 4.32378 27.5531C5.07323 27.496 5.70396 27.7844 6.21633 28.4186C7.52563 27.4427 8.95915 26.6925 10.5176 26.1684C9.02487 25.5328 7.53354 24.8979 6.04428 24.2644C5.5092 24.3412 5.05017 24.5721 4.66788 24.9567C4.55329 24.8415 4.43836 24.7258 4.32378 24.6106C4.74048 24.1349 5.08458 23.6156 5.35608 23.0527C4.14622 20.5028 3.34344 17.9064 2.94738 15.2637Z" fill="white"/>
</g>
<g id="Group_22">
<path id="Vector_22" fill-rule="evenodd" clip-rule="evenodd" d="M21.1841 15.2637C21.1841 15.4946 21.0696 15.6099 20.84 15.6099C20.84 15.7251 20.84 15.8408 20.84 15.956C21.3283 16.2853 21.9016 16.4005 22.5605 16.3022C22.0699 16.0111 21.6108 15.6649 21.1841 15.2637Z" fill="#008B11"/>
</g>
<g id="Group_23">
<path id="Vector_23" fill-rule="evenodd" clip-rule="evenodd" d="M14.9897 11.8029C14.1092 11.6983 13.306 11.8139 12.581 12.149C13.9481 13.4649 15.382 14.7343 16.8823 15.957C17.3258 16.944 17.4979 17.9825 17.3984 19.0727C18.0959 19.0166 18.7841 19.0744 19.463 19.2458C19.8849 19.8118 20.3436 20.331 20.8394 20.8036C21.1766 19.9084 21.2912 18.9851 21.1835 18.0341C20.7248 18.0341 20.2658 18.0341 19.8071 18.0341C19.7521 17.446 19.8092 16.8689 19.9792 16.3032C20.2101 16.0429 20.4967 15.9273 20.8394 15.957C20.8394 15.8418 20.8394 15.7261 20.8394 15.6109C19.642 13.2174 17.6923 11.9479 14.9897 11.8029Z" fill="white"/>
</g>
<g id="Group_24">
<path id="Vector_24" fill-rule="evenodd" clip-rule="evenodd" d="M20.4958 11.1094C21.6124 13.7043 22.9888 16.1276 24.625 18.3792C23.5445 16.2052 22.4548 14.0125 21.3561 11.8017C21.1124 11.4968 20.8254 11.2662 20.4958 11.1094Z" fill="#008B11"/>
</g>
<g id="Group_25">
<path id="Vector_25" fill-rule="evenodd" clip-rule="evenodd" d="M11.2058 7.9946C7.56354 7.57469 5.26977 9.1325 4.32384 12.668C5.19785 13.2957 5.54195 14.1611 5.35614 15.2644C4.89745 15.2644 4.43842 15.2644 3.97974 15.2644C4.10292 16.6522 4.27497 18.037 4.49589 19.4186C5.14692 22.7658 5.83512 22.8811 6.56049 19.7648C6.27213 16.4577 7.30443 13.6882 9.65739 11.4564C9.71588 10.6896 9.9454 9.99726 10.3456 9.37933C10.6745 9.75286 10.9612 10.1565 11.2058 10.591C12.2567 10.8752 13.289 10.8177 14.3027 10.4179C13.3547 9.45964 12.3224 8.652 11.2058 7.9946Z" fill="white"/>
</g>
<g id="Group_26">
<path id="Vector_26" fill-rule="evenodd" clip-rule="evenodd" d="M14.99 11.8024C14.1215 11.3523 13.2038 11.3523 12.2372 11.8024C12.2799 12.0125 12.3944 12.1278 12.5813 12.1486C13.3063 11.8134 14.1094 11.6978 14.99 11.8024Z" fill="#008B11"/>
</g>
<g id="Group_27">
<path id="Vector_27" fill-rule="evenodd" clip-rule="evenodd" d="M2.2588 12.841C2.48831 9.72538 2.71748 6.60975 2.947 3.49412C9.91743 3.48304 15.7671 6.02194 20.4961 11.1101C19.9042 9.9916 19.1015 9.01086 18.0874 8.16757C15.2431 6.04444 12.1462 4.48662 8.7967 3.49412C6.63816 3.0832 4.45897 2.8523 2.2588 2.80176C2.2588 6.14829 2.2588 9.49448 2.2588 12.841Z" fill="#008B11"/>
</g>
<g id="Group_28">
<path id="Vector_28" fill-rule="evenodd" clip-rule="evenodd" d="M25.3127 32.5732C24.4914 33.4086 23.7457 34.3318 23.0761 35.3427C22.9443 35.1502 22.7723 35.0349 22.5599 34.9965C22.657 35.4389 22.8865 35.7851 23.2481 36.0351C24.0705 34.9737 24.7587 33.8195 25.3127 32.5732Z" fill="#008B11"/>
</g>
<g id="Group_29">
<path id="Vector_29" fill-rule="evenodd" clip-rule="evenodd" d="M22.5601 36.0354C22.7896 36.1507 23.0188 36.2663 23.2483 36.3816C23.2483 36.2663 23.2483 36.1507 23.2483 36.0354C22.8866 35.7855 22.6571 35.4393 22.5601 34.9969C21.9479 34.3585 21.1452 34.1279 20.1514 34.3045C20.1514 34.8816 20.1514 35.4583 20.1514 36.0354C20.9542 36.0354 21.7573 36.0354 22.5601 36.0354Z" fill="#008B11"/>
</g>
<g id="Group_30">
<path id="Vector_30" fill-rule="evenodd" clip-rule="evenodd" d="M13.6148 34.9959C13.2707 35.2268 12.9266 35.4573 12.5825 35.6883C15.6202 36.1518 16.8246 34.8827 16.1956 31.8803C15.9089 31.1301 15.3928 30.6108 14.6471 30.3224C8.25993 29.9448 6.2528 32.772 8.62537 38.8039C8.9908 39.2882 9.44949 39.6344 10.0018 39.8424C10.7399 39.0999 11.4855 38.3497 12.2384 37.5922C10.3366 36.9331 9.59091 35.6059 10.0018 33.6112C11.0193 32.5512 12.2236 32.3206 13.6148 32.9188C14.0463 33.6607 14.0463 34.353 13.6148 34.9959Z" fill="white"/>
</g>
<g id="Group_31">
<path id="Vector_31" fill-rule="evenodd" clip-rule="evenodd" d="M12.581 35.6894C12.9251 35.4585 13.2692 35.228 13.6133 34.997C12.9278 35.0566 12.3546 34.8257 11.8928 34.3047C11.5848 34.9434 11.8143 35.4049 12.581 35.6894Z" fill="#008B11"/>
</g>
<g id="Group_32">
<path id="Vector_32" fill-rule="evenodd" clip-rule="evenodd" d="M5.01108 37.0732C4.32288 37.0732 3.63468 37.0732 2.94648 37.0732C2.94648 37.6503 2.94648 38.2271 2.94648 38.8041C3.74927 38.8041 4.5524 38.8041 5.35518 38.8041C5.45291 38.1412 5.33832 37.5645 5.01108 37.0732Z" fill="#008B11"/>
</g>
<g id="Group_33">
<path id="Vector_33" fill-rule="evenodd" clip-rule="evenodd" d="M4.32306 34.6507C4.21466 35.5892 4.44418 36.3969 5.01126 37.074C5.33849 37.5652 5.45308 38.142 5.35536 38.8049C5.01126 39.0358 4.66716 39.2664 4.32306 39.4973C5.43071 43.3454 7.954 44.7876 11.8933 43.8245C15.2582 41.8316 15.0287 41.1392 11.2051 41.7475C10.9281 42.1328 10.6985 42.5364 10.5169 42.9591C10.4962 43.1471 10.3816 43.2624 10.1728 43.3053C9.8376 42.5288 9.72267 41.7212 9.82865 40.882C8.84625 40.1876 8.10093 39.2647 7.59201 38.1126C7.03835 35.5761 6.5222 33.0375 6.04356 30.4966C5.92897 30.3813 5.81404 30.2657 5.69946 30.1504C4.6878 31.4731 4.22912 32.9732 4.32306 34.6507Z" fill="white"/>
</g>
<g id="Group_34">
<path id="Vector_34" fill-rule="evenodd" clip-rule="evenodd" d="M22.5601 36.0352C22.3564 37.1398 21.9548 38.1784 21.3557 39.1508C16.8621 45.4215 10.7258 48.5371 2.9464 48.4977C2.71688 45.382 2.48771 42.2664 2.2582 39.1508C2.2582 42.4973 2.2582 45.8435 2.2582 49.19C3.17591 49.19 4.09328 49.19 5.011 49.19C7.05736 48.7909 9.12196 48.2716 11.2048 47.6322C16.9399 45.7275 20.9545 41.9774 23.2483 36.3813C23.0188 36.2661 22.7896 36.1504 22.5601 36.0352Z" fill="#008B11"/>
</g>
<g id="Group_35">
<path id="Vector_35" fill-rule="evenodd" clip-rule="evenodd" d="M9.82938 40.8809C9.7234 41.72 9.83832 42.5276 10.1735 43.3041C10.3823 43.2612 10.4969 43.1459 10.5176 42.9579C10.2881 42.2656 10.0589 41.5732 9.82938 40.8809Z" fill="#008B11"/>
</g>
<g id="Group_36">
<path id="Vector_36" fill-rule="evenodd" clip-rule="evenodd" d="M3.97843 49.8823C4.57923 49.7088 4.92333 49.4779 5.01073 49.1899C4.09301 49.1899 3.17564 49.1899 2.25793 49.1899C2.25793 45.8434 2.25793 42.4972 2.25793 39.1506C2.25793 30.3808 2.25793 21.6107 2.25793 12.8409C2.25793 9.49434 2.25793 6.14815 2.25793 2.80162C4.4581 2.85216 6.63729 3.08306 8.79583 3.49398C9.15782 3.54556 9.50192 3.48809 9.82812 3.32089C9.06319 3.12495 8.37499 2.83624 7.76353 2.45544C5.82934 2.1598 3.87933 2.04452 1.91383 2.10925C1.91383 18.0336 1.91383 33.9579 1.91383 49.8823C2.60203 49.8823 3.29023 49.8823 3.97843 49.8823Z" fill="white"/>
</g>
</g>
</svg>
